<svg width="302" height="56" viewBox="0 0 302 56" fill="none" xmlns="http://www.w3.org/2000/svg">
<path d="M67.808 28.808C68.6667 28.808 69.2827 28.9947 69.656 29.368C70.0667 29.7413 70.272 30.2267 70.272 30.824C70.272 31.7947 69.9733 32.6533 69.376 33.4C68.816 34.1467 67.92 34.5387 66.688 34.576C63.7387 34.6133 61.088 34.3893 58.736 33.904C56.1227 39.4667 52.968 44.096 49.272 47.792C45.6133 51.4507 41.992 53.28 38.408 53.28C35.1227 53.28 32.6587 51.544 31.016 48.072C29.3733 44.5627 28.44 39.8773 28.216 34.016C25.976 40.512 23.4373 45.3467 20.6 48.52C17.8 51.6933 14.8133 53.28 11.64 53.28C8.056 53.28 5.34933 51.0587 3.52 46.616C1.69067 42.136 0.776 36.1253 0.776 28.584C0.776 23.096 1.26133 17.0667 2.232 10.496C2.49333 8.62933 2.96 7.34133 3.632 6.632C4.34133 5.88533 5.44267 5.512 6.936 5.512C8.056 5.512 8.91467 5.75466 9.512 6.24C10.1467 6.72533 10.464 7.62133 10.464 8.928C10.464 9.18933 10.4267 9.69333 10.352 10.44C9.232 18.0933 8.672 24.608 8.672 29.984C8.672 34.9867 9.10133 38.8507 9.96 41.576C10.8187 44.3013 11.976 45.664 13.432 45.664C14.7387 45.664 16.3067 44.3013 18.136 41.576C20.0027 38.8133 21.8507 34.744 23.68 29.368C25.5093 23.9547 27.0587 17.5147 28.328 10.048C28.6267 8.33067 29.168 7.15466 29.952 6.52C30.7733 5.848 31.8747 5.512 33.256 5.512C34.4133 5.512 35.2533 5.77333 35.776 6.296C36.336 6.78133 36.616 7.528 36.616 8.536C36.616 9.13333 36.5787 9.6 36.504 9.936C35.4587 16.0213 34.936 22.1067 34.936 28.192C34.936 32.336 35.0667 35.64 35.328 38.104C35.6267 40.568 36.168 42.4533 36.952 43.76C37.7733 45.0293 38.9493 45.664 40.48 45.664C42.272 45.664 44.2693 44.32 46.472 41.632C48.6747 38.9067 50.6907 35.528 52.52 31.496C50.2427 30.0773 48.5253 28.248 47.368 26.008C46.2107 23.7307 45.632 21.1173 45.632 18.168C45.632 15.2187 46.08 12.736 46.976 10.72C47.9093 8.66666 49.16 7.136 50.728 6.128C52.3333 5.12 54.1067 4.616 56.048 4.616C58.4373 4.616 60.3227 5.47467 61.704 7.192C63.1227 8.90933 63.832 11.2613 63.832 14.248C63.832 18.4667 62.9173 23.152 61.088 28.304C62.992 28.64 65.232 28.808 67.808 28.808ZM51.288 17.776C51.288 21.4347 52.464 24.1413 54.816 25.896C56.272 21.7147 57 18.2613 57 15.536C57 13.968 56.7947 12.8293 56.384 12.12C55.9733 11.3733 55.4133 11 54.704 11C53.696 11 52.8747 11.5973 52.24 12.792C51.6053 13.9493 51.288 15.6107 51.288 17.776ZM95.9086 40.512C96.394 40.512 96.7673 40.736 97.0286 41.184C97.3273 41.632 97.4766 42.248 97.4766 43.032C97.4766 44.5253 97.122 45.6827 96.4126 46.504C94.6953 48.4827 92.922 50.1067 91.0926 51.376C89.3006 52.6453 87.2473 53.28 84.9326 53.28C83.0286 53.28 81.5913 52.7387 80.6206 51.656C79.65 50.536 79.1646 48.9307 79.1646 46.84C79.1646 45.7947 79.426 43.928 79.9486 41.24C80.434 38.888 80.6766 37.264 80.6766 36.368C80.6766 35.7707 80.4713 35.472 80.0606 35.472C79.5753 35.472 78.8846 36.1067 77.9886 37.376C77.0926 38.608 76.1966 40.2507 75.3006 42.304C74.4046 44.3573 73.6766 46.5227 73.1166 48.8C72.4073 51.7867 70.6526 53.28 67.8526 53.28C66.7326 53.28 65.986 52.888 65.6126 52.104C65.2766 51.2827 65.1086 49.8267 65.1086 47.736C65.1086 46.5413 65.1273 45.5893 65.1646 44.88L65.2206 40.4C65.2206 34.6507 65.7993 28.6587 66.9566 22.424C68.1513 16.1893 69.8873 10.9627 72.1646 6.744C74.4793 2.488 77.242 0.359997 80.4526 0.359997C82.17 0.359997 83.5513 1.10666 84.5966 2.6C85.6793 4.056 86.2206 5.96 86.2206 8.312C86.2206 12.0827 85.1193 16.0027 82.9166 20.072C80.714 24.104 77.13 28.8267 72.1646 34.24C72.0526 36.1813 71.9966 38.1787 71.9966 40.232C73.2286 37.0587 74.5913 34.4827 76.0846 32.504C77.6153 30.488 79.1086 29.0507 80.5646 28.192C82.058 27.3333 83.4206 26.904 84.6526 26.904C87.0793 26.904 88.2926 28.1173 88.2926 30.544C88.2926 32 87.882 34.632 87.0606 38.44C86.3513 41.688 85.9966 43.8347 85.9966 44.88C85.9966 46.3733 86.538 47.12 87.6206 47.12C88.3673 47.12 89.2446 46.672 90.2526 45.776C91.298 44.8427 92.6793 43.3493 94.3966 41.296C94.8446 40.7733 95.3486 40.512 95.9086 40.512ZM79.2766 5.904C78.6046 5.904 77.858 6.87467 77.0366 8.816C76.2153 10.72 75.4126 13.3147 74.6286 16.6C73.882 19.848 73.266 23.3947 72.7806 27.24C75.0953 24.5147 76.9993 21.5467 78.4926 18.336C80.0233 15.1253 80.7886 12.2133 80.7886 9.6C80.7886 8.40533 80.658 7.49066 80.3966 6.856C80.1353 6.22133 79.762 5.904 79.2766 5.904ZM99.826 53.28C97.5113 53.28 95.6633 52.44 94.282 50.76C92.9007 49.08 92.21 46.8773 92.21 44.152C92.21 41.1653 92.9007 38.3467 94.282 35.696C95.6633 33.008 97.4927 30.8613 99.77 29.256C102.085 27.6133 104.53 26.792 107.106 26.792C107.927 26.792 108.469 26.96 108.73 27.296C109.029 27.5947 109.271 28.1547 109.458 28.976C110.242 28.8267 111.063 28.752 111.922 28.752C113.751 28.752 114.666 29.4053 114.666 30.712C114.666 31.496 114.386 33.3627 113.826 36.312C112.967 40.6053 112.538 43.592 112.538 45.272C112.538 45.832 112.669 46.28 112.93 46.616C113.229 46.952 113.602 47.12 114.05 47.12C114.759 47.12 115.618 46.672 116.626 45.776C117.634 44.8427 118.997 43.3493 120.714 41.296C121.162 40.7733 121.666 40.512 122.226 40.512C122.711 40.512 123.085 40.736 123.346 41.184C123.645 41.632 123.794 42.248 123.794 43.032C123.794 44.5253 123.439 45.6827 122.73 46.504C121.199 48.408 119.575 50.0133 117.858 51.32C116.141 52.6267 114.479 53.28 112.874 53.28C111.642 53.28 110.503 52.8693 109.458 52.048C108.45 51.1893 107.685 50.032 107.162 48.576C105.221 51.712 102.775 53.28 99.826 53.28ZM101.842 47.624C102.663 47.624 103.447 47.1387 104.194 46.168C104.941 45.1973 105.482 43.9093 105.818 42.304L107.89 32C106.322 32.0373 104.866 32.6347 103.522 33.792C102.215 34.912 101.17 36.4053 100.386 38.272C99.602 40.1387 99.21 42.1173 99.21 44.208C99.21 45.3653 99.434 46.224 99.882 46.784C100.367 47.344 101.021 47.624 101.842 47.624ZM128.483 32.224C128.408 34.0907 128.371 35.5467 128.371 36.592C128.371 39.28 128.501 41.3893 128.763 42.92C129.061 44.4133 129.528 45.496 130.163 46.168C130.835 46.8027 131.749 47.12 132.907 47.12C133.504 47.12 134.213 46.9333 135.035 46.56C135.856 46.1867 136.603 45.7013 137.275 45.104C137.685 44.7307 138.096 44.544 138.507 44.544C138.955 44.544 139.309 44.8053 139.571 45.328C139.869 45.8133 140.019 46.4107 140.019 47.12C140.019 47.8293 139.869 48.52 139.571 49.192C139.309 49.864 138.899 50.424 138.339 50.872C136.397 52.4773 134.195 53.28 131.731 53.28C128.184 53.28 125.589 51.8053 123.947 48.856C122.304 45.8693 121.483 41.9867 121.483 37.208C121.483 35.5653 121.539 33.904 121.651 32.224H119.467C118.347 32.224 117.581 32.0187 117.171 31.608C116.797 31.1973 116.611 30.544 116.611 29.648C116.611 27.5573 117.451 26.512 119.131 26.512H122.323C122.957 22.4053 123.928 18.6533 125.235 15.256C126.541 11.8587 128.109 9.152 129.939 7.136C131.805 5.12 133.803 4.112 135.931 4.112C137.499 4.112 138.731 4.80267 139.627 6.184C140.523 7.56533 140.971 9.30133 140.971 11.392C140.971 17.1787 138.544 22.2187 133.691 26.512H139.963C140.56 26.512 140.989 26.6427 141.251 26.904C141.512 27.1653 141.643 27.6507 141.643 28.36C141.643 30.936 139.533 32.224 135.315 32.224H128.483ZM134.419 9.488C133.859 9.488 133.224 10.1973 132.515 11.616C131.843 12.9973 131.189 14.9387 130.555 17.44C129.957 19.904 129.453 22.648 129.043 25.672C131.245 23.768 132.888 21.64 133.971 19.288C135.091 16.8987 135.651 14.7333 135.651 12.792C135.651 10.5893 135.24 9.488 134.419 9.488ZM226.346 17.16C226.346 20.3333 225.226 23.0773 222.986 25.392C220.746 27.6693 217.48 29.312 213.186 30.32C215.501 30.9547 217.256 32 218.45 33.456C219.645 34.8747 220.242 36.5173 220.242 38.384C220.242 41.3333 219.309 43.8907 217.442 46.056C215.613 48.2213 212.925 49.9013 209.378 51.096C205.832 52.2533 201.557 52.832 196.554 52.832C194.688 52.832 193.194 52.776 192.074 52.664C192.037 53.7093 191.589 54.4933 190.73 55.016C189.872 55.5387 188.77 55.8 187.426 55.8C186.082 55.8 185.149 55.5013 184.626 54.904C184.141 54.3067 183.936 53.4293 184.01 52.272C184.346 47.0453 185 41.576 185.97 35.864C186.941 30.1147 188.173 24.5707 189.666 19.232C189.928 18.2987 190.45 17.6453 191.234 17.272C192.018 16.8987 193.045 16.712 194.314 16.712C196.592 16.712 197.73 17.3467 197.73 18.616C197.73 19.1387 197.618 19.736 197.394 20.408C196.424 23.32 195.453 27.2773 194.482 32.28C193.512 37.2453 192.821 41.9867 192.41 46.504C194.202 46.6533 195.658 46.728 196.778 46.728C202.005 46.728 205.832 45.9813 208.258 44.488C210.722 42.9573 211.954 41.016 211.954 38.664C211.954 37.0213 211.245 35.64 209.826 34.52C208.445 33.4 206.112 32.784 202.826 32.672C202.08 32.6347 201.557 32.448 201.258 32.112C200.96 31.776 200.81 31.2347 200.81 30.488C200.81 29.4053 201.034 28.528 201.482 27.856C201.93 27.184 202.752 26.8293 203.946 26.792C206.597 26.7173 208.986 26.3253 211.114 25.616C213.28 24.9067 214.978 23.9173 216.21 22.648C217.442 21.3413 218.058 19.8293 218.058 18.112C218.058 15.9467 216.994 14.248 214.866 13.016C212.738 11.7467 209.472 11.112 205.066 11.112C201.072 11.112 197.208 11.6347 193.474 12.68C189.741 13.688 186.568 14.976 183.954 16.544C182.76 17.2533 181.752 17.608 180.93 17.608C180.258 17.608 179.736 17.384 179.362 16.936C179.026 16.4507 178.858 15.8533 178.858 15.144C178.858 14.2107 179.045 13.408 179.418 12.736C179.829 12.064 180.781 11.2987 182.274 10.44C185.41 8.648 189.088 7.248 193.306 6.24C197.525 5.232 201.837 4.728 206.242 4.728C213 4.728 218.04 5.86666 221.362 8.144C224.685 10.4213 226.346 13.4267 226.346 17.16ZM231.392 53.28C229.078 53.28 227.23 52.44 225.848 50.76C224.467 49.08 223.776 46.8773 223.776 44.152C223.776 41.1653 224.467 38.3467 225.848 35.696C227.23 33.008 229.059 30.8613 231.336 29.256C233.651 27.6133 236.096 26.792 238.672 26.792C239.494 26.792 240.035 26.96 240.296 27.296C240.595 27.5947 240.838 28.1547 241.024 28.976C241.808 28.8267 242.63 28.752 243.488 28.752C245.318 28.752 246.232 29.4053 246.232 30.712C246.232 31.496 245.952 33.3627 245.392 36.312C244.534 40.6053 244.104 43.592 244.104 45.272C244.104 45.832 244.235 46.28 244.496 46.616C244.795 46.952 245.168 47.12 245.616 47.12C246.326 47.12 247.184 46.672 248.192 45.776C249.2 44.8427 250.563 43.3493 252.28 41.296C252.728 40.7733 253.232 40.512 253.792 40.512C254.278 40.512 254.651 40.736 254.912 41.184C255.211 41.632 255.36 42.248 255.36 43.032C255.36 44.5253 255.006 45.6827 254.296 46.504C252.766 48.408 251.142 50.0133 249.424 51.32C247.707 52.6267 246.046 53.28 244.44 53.28C243.208 53.28 242.07 52.8693 241.024 52.048C240.016 51.1893 239.251 50.032 238.728 48.576C236.787 51.712 234.342 53.28 231.392 53.28ZM233.408 47.624C234.23 47.624 235.014 47.1387 235.76 46.168C236.507 45.1973 237.048 43.9093 237.384 42.304L239.456 32C237.888 32.0373 236.432 32.6347 235.088 33.792C233.782 34.912 232.736 36.4053 231.952 38.272C231.168 40.1387 230.776 42.1173 230.776 44.208C230.776 45.3653 231 46.224 231.448 46.784C231.934 47.344 232.587 47.624 233.408 47.624ZM283.177 40.512C283.662 40.512 284.036 40.736 284.297 41.184C284.596 41.632 284.745 42.248 284.745 43.032C284.745 44.5253 284.39 45.6827 283.681 46.504C282.001 48.5573 280.302 50.2 278.585 51.432C276.868 52.664 274.833 53.28 272.481 53.28C269.606 53.28 267.292 52.4587 265.537 50.816C263.782 49.1733 262.905 46.9893 262.905 44.264C262.905 42.808 263.652 41.7627 265.145 41.128C266.788 40.4187 267.964 39.672 268.673 38.888C269.382 38.0667 269.737 37.0773 269.737 35.92C269.737 35.248 269.588 34.744 269.289 34.408C269.028 34.072 268.692 33.904 268.281 33.904C267.273 33.904 266.153 34.632 264.921 36.088C263.726 37.544 262.606 39.4293 261.561 41.744C260.516 44.0213 259.694 46.3733 259.097 48.8C258.686 50.5547 258.201 51.7493 257.641 52.384C257.118 52.9813 256.278 53.28 255.121 53.28C253.964 53.28 253.105 52.8693 252.545 52.048C252.022 51.1893 251.668 49.8827 251.481 48.128C251.294 46.3733 251.201 43.7973 251.201 40.4C251.201 34.6507 251.78 28.6587 252.937 22.424C254.132 16.1893 255.868 10.9627 258.145 6.744C260.46 2.488 263.222 0.359997 266.433 0.359997C268.15 0.359997 269.532 1.10666 270.577 2.6C271.66 4.056 272.201 5.96 272.201 8.312C272.201 12.0827 271.1 16.0027 268.897 20.072C266.694 24.104 263.11 28.8267 258.145 34.24C258.033 36.1813 257.977 38.1787 257.977 40.232C259.769 35.5653 261.822 32.1867 264.137 30.096C266.452 27.968 268.617 26.904 270.633 26.904C272.5 26.904 273.993 27.5387 275.113 28.808C276.27 30.0773 276.849 31.6453 276.849 33.512C276.849 35.5653 276.326 37.4507 275.281 39.168C274.236 40.8853 272.444 42.416 269.905 43.76C270.054 44.768 270.502 45.5893 271.249 46.224C272.033 46.8213 272.966 47.12 274.049 47.12C275.206 47.12 276.326 46.672 277.409 45.776C278.492 44.88 279.91 43.3867 281.665 41.296C282.113 40.7733 282.617 40.512 283.177 40.512ZM265.257 5.904C264.585 5.904 263.838 6.87467 263.017 8.816C262.196 10.72 261.393 13.3147 260.609 16.6C259.862 19.848 259.246 23.3947 258.761 27.24C261.076 24.5147 262.98 21.5467 264.473 18.336C266.004 15.1253 266.769 12.2133 266.769 9.6C266.769 8.40533 266.638 7.49066 266.377 6.856C266.116 6.22133 265.742 5.904 265.257 5.904ZM300.279 42.192C300.764 42.192 301.138 42.416 301.399 42.864C301.698 43.312 301.847 43.928 301.847 44.712C301.847 46.056 301.53 47.2133 300.895 48.184C299.85 49.7893 298.468 51.04 296.751 51.936C295.071 52.832 293.055 53.28 290.703 53.28C287.119 53.28 284.338 52.216 282.359 50.088C280.38 47.9227 279.391 45.0107 279.391 41.352C279.391 38.776 279.932 36.3867 281.015 34.184C282.098 31.944 283.591 30.1707 285.495 28.864C287.436 27.5573 289.62 26.904 292.047 26.904C294.212 26.904 295.948 27.5573 297.255 28.864C298.562 30.1333 299.215 31.8693 299.215 34.072C299.215 36.648 298.282 38.8693 296.415 40.736C294.586 42.5653 291.45 44.0213 287.007 45.104C287.903 46.8213 289.415 47.68 291.543 47.68C293.074 47.68 294.324 47.3253 295.295 46.616C296.303 45.9067 297.46 44.712 298.767 43.032C299.215 42.472 299.719 42.192 300.279 42.192ZM291.095 32.392C289.714 32.392 288.538 33.1947 287.567 34.8C286.634 36.4053 286.167 38.3467 286.167 40.624V40.736C288.37 40.2133 290.106 39.4293 291.375 38.384C292.644 37.3387 293.279 36.1253 293.279 34.744C293.279 34.0347 293.074 33.4747 292.663 33.064C292.29 32.616 291.767 32.392 291.095 32.392Z" fill="white"/>
<path d="M172.056 45.384C173.008 45.384 173.733 45.7013 174.232 46.336C174.73 46.9707 174.98 47.764 174.98 48.716C174.98 49.8947 174.594 50.96 173.824 51.912C173.098 52.8187 172.101 53.272 170.832 53.272C168.656 53.272 165.414 53.1133 161.108 52.796C160.246 52.7507 158.66 52.66 156.348 52.524C154.036 52.388 152.222 52.32 150.908 52.32C150.318 52.32 149.457 52.524 148.324 52.932C148.097 52.9773 147.644 53.0907 146.964 53.272C146.329 53.4533 145.785 53.544 145.332 53.544C144.606 53.544 143.994 53.2267 143.496 52.592C143.042 51.912 142.816 50.9147 142.816 49.6C142.816 48.1493 143.156 47.0387 143.836 46.268C144.516 45.452 145.581 44.7267 147.032 44.092C150.114 42.732 153.016 41.0093 155.736 38.924C158.501 36.7933 160.7 34.504 162.332 32.056C164.009 29.608 164.848 27.2733 164.848 25.052C164.848 23.284 164.44 21.992 163.624 21.176C162.853 20.3147 161.606 19.884 159.884 19.884C157.889 19.884 156.28 20.428 155.056 21.516C153.877 22.604 153.288 24.1227 153.288 26.072C153.288 28.7467 151.95 30.084 149.276 30.084C148.006 30.084 147.009 29.7213 146.284 28.996C145.604 28.2707 145.264 27.228 145.264 25.868C145.264 23.6013 145.853 21.516 147.032 19.612C148.21 17.708 149.978 16.1893 152.336 15.056C154.693 13.8773 157.572 13.288 160.972 13.288C165.052 13.288 168.248 14.308 170.56 16.348C172.872 18.388 174.027 21.2213 174.027 24.848C174.027 28.2933 172.509 31.8973 169.472 35.66C166.48 39.4227 162.15 42.7547 156.484 45.656L172.056 45.384Z" fill="#D4AF37"/>
</svg>
