<svg width="416" height="65" viewBox="0 0 416 65" fill="none" xmlns="http://www.w3.org/2000/svg">
<path d="M77.1645 33.352C78.1458 33.352 78.8498 33.5653 79.2765 33.992C79.7458 34.4187 79.9805 34.9733 79.9805 35.656C79.9805 36.7653 79.6392 37.7467 78.9565 38.6C78.3165 39.4533 77.2925 39.9013 75.8845 39.944C72.5138 39.9867 69.4845 39.7307 66.7965 39.176C63.8098 45.5333 60.2045 50.824 55.9805 55.048C51.7992 59.2293 47.6605 61.32 43.5645 61.32C39.8098 61.32 36.9938 59.336 35.1165 55.368C33.2392 51.3573 32.1725 46.0027 31.9165 39.304C29.3565 46.728 26.4552 52.2533 23.2125 55.88C20.0125 59.5067 16.5992 61.32 12.9725 61.32C8.8765 61.32 5.78317 58.7813 3.6925 53.704C1.60183 48.584 0.5565 41.7147 0.5565 33.096C0.5565 26.824 1.11117 19.9333 2.2205 12.424C2.51917 10.2907 3.0525 8.81866 3.8205 8.008C4.63117 7.15466 5.88983 6.728 7.5965 6.728C8.8765 6.728 9.85783 7.00533 10.5405 7.56C11.2658 8.11466 11.6285 9.13866 11.6285 10.632C11.6285 10.9307 11.5858 11.5067 11.5005 12.36C10.2205 21.1067 9.5805 28.552 9.5805 34.696C9.5805 40.4133 10.0712 44.8293 11.0525 47.944C12.0338 51.0587 13.3565 52.616 15.0205 52.616C16.5138 52.616 18.3058 51.0587 20.3965 47.944C22.5298 44.7867 24.6418 40.136 26.7325 33.992C28.8232 27.8053 30.5938 20.4453 32.0445 11.912C32.3858 9.94933 33.0045 8.60533 33.9005 7.88C34.8392 7.112 36.0978 6.728 37.6765 6.728C38.9992 6.728 39.9592 7.02666 40.5565 7.624C41.1965 8.17866 41.5165 9.032 41.5165 10.184C41.5165 10.8667 41.4738 11.4 41.3885 11.784C40.1938 18.7387 39.5965 25.6933 39.5965 32.648C39.5965 37.384 39.7458 41.16 40.0445 43.976C40.3858 46.792 41.0045 48.9467 41.9005 50.44C42.8392 51.8907 44.1832 52.616 45.9325 52.616C47.9805 52.616 50.2632 51.08 52.7805 48.008C55.2978 44.8933 57.6018 41.032 59.6925 36.424C57.0898 34.8027 55.1272 32.712 53.8045 30.152C52.4818 27.5493 51.8205 24.5627 51.8205 21.192C51.8205 17.8213 52.3325 14.984 53.3565 12.68C54.4232 10.3333 55.8525 8.584 57.6445 7.432C59.4792 6.28 61.5058 5.704 63.7245 5.704C66.4552 5.704 68.6098 6.68533 70.1885 8.648C71.8098 10.6107 72.6205 13.2987 72.6205 16.712C72.6205 21.5333 71.5752 26.888 69.4845 32.776C71.6605 33.16 74.2205 33.352 77.1645 33.352ZM58.2845 20.744C58.2845 24.9253 59.6285 28.0187 62.3165 30.024C63.9805 25.2453 64.8125 21.2987 64.8125 18.184C64.8125 16.392 64.5778 15.0907 64.1085 14.28C63.6392 13.4267 62.9992 13 62.1885 13C61.0365 13 60.0978 13.6827 59.3725 15.048C58.6472 16.3707 58.2845 18.2693 58.2845 20.744ZM109.28 46.728C109.834 46.728 110.261 46.984 110.56 47.496C110.901 48.008 111.072 48.712 111.072 49.608C111.072 51.3147 110.666 52.6373 109.856 53.576C107.893 55.8373 105.866 57.6933 103.776 59.144C101.728 60.5947 99.3808 61.32 96.7355 61.32C94.5595 61.32 92.9168 60.7013 91.8075 59.464C90.6982 58.184 90.1435 56.3493 90.1435 53.96C90.1435 52.7653 90.4422 50.632 91.0395 47.56C91.5942 44.872 91.8715 43.016 91.8715 41.992C91.8715 41.3093 91.6368 40.968 91.1675 40.968C90.6128 40.968 89.8235 41.6933 88.7995 43.144C87.7755 44.552 86.7515 46.4293 85.7275 48.776C84.7035 51.1227 83.8715 53.5973 83.2315 56.2C82.4208 59.6133 80.4155 61.32 77.2155 61.32C75.9355 61.32 75.0822 60.872 74.6555 59.976C74.2715 59.0373 74.0795 57.3733 74.0795 54.984C74.0795 53.6187 74.1008 52.5307 74.1435 51.72L74.2075 46.6C74.2075 40.0293 74.8688 33.1813 76.1915 26.056C77.5568 18.9307 79.5408 12.9573 82.1435 8.136C84.7888 3.272 87.9462 0.839996 91.6155 0.839996C93.5782 0.839996 95.1568 1.69333 96.3515 3.4C97.5888 5.064 98.2075 7.24 98.2075 9.928C98.2075 14.2373 96.9488 18.7173 94.4315 23.368C91.9142 27.976 87.8182 33.3733 82.1435 39.56C82.0155 41.7787 81.9515 44.0613 81.9515 46.408C83.3595 42.7813 84.9168 39.8373 86.6235 37.576C88.3728 35.272 90.0795 33.6293 91.7435 32.648C93.4502 31.6667 95.0075 31.176 96.4155 31.176C99.1888 31.176 100.576 32.5627 100.576 35.336C100.576 37 100.106 40.008 99.1675 44.36C98.3568 48.072 97.9515 50.5253 97.9515 51.72C97.9515 53.4267 98.5702 54.28 99.8075 54.28C100.661 54.28 101.664 53.768 102.816 52.744C104.01 51.6773 105.589 49.9707 107.552 47.624C108.064 47.0267 108.64 46.728 109.28 46.728ZM90.2715 7.176C89.5035 7.176 88.6502 8.28533 87.7115 10.504C86.7728 12.68 85.8555 15.6453 84.9595 19.4C84.1062 23.112 83.4022 27.1653 82.8475 31.56C85.4928 28.4453 87.6688 25.0533 89.3755 21.384C91.1248 17.7147 91.9995 14.3867 91.9995 11.4C91.9995 10.0347 91.8502 8.98933 91.5515 8.264C91.2528 7.53866 90.8262 7.176 90.2715 7.176ZM113.757 61.32C111.111 61.32 108.999 60.36 107.421 58.44C105.842 56.52 105.053 54.0027 105.053 50.888C105.053 47.4747 105.842 44.2533 107.421 41.224C108.999 38.152 111.09 35.6987 113.693 33.864C116.338 31.9867 119.133 31.048 122.077 31.048C123.015 31.048 123.634 31.24 123.933 31.624C124.274 31.9653 124.551 32.6053 124.765 33.544C125.661 33.3733 126.599 33.288 127.581 33.288C129.671 33.288 130.717 34.0347 130.717 35.528C130.717 36.424 130.397 38.5573 129.757 41.928C128.775 46.8347 128.285 50.248 128.285 52.168C128.285 52.808 128.434 53.32 128.733 53.704C129.074 54.088 129.501 54.28 130.013 54.28C130.823 54.28 131.805 53.768 132.957 52.744C134.109 51.6773 135.666 49.9707 137.629 47.624C138.141 47.0267 138.717 46.728 139.357 46.728C139.911 46.728 140.338 46.984 140.637 47.496C140.978 48.008 141.149 48.712 141.149 49.608C141.149 51.3147 140.743 52.6373 139.933 53.576C138.183 55.752 136.327 57.5867 134.365 59.08C132.402 60.5733 130.503 61.32 128.669 61.32C127.261 61.32 125.959 60.8507 124.765 59.912C123.613 58.9307 122.738 57.608 122.141 55.944C119.922 59.528 117.127 61.32 113.757 61.32ZM116.061 54.856C116.999 54.856 117.895 54.3013 118.749 53.192C119.602 52.0827 120.221 50.6107 120.605 48.776L122.973 37C121.181 37.0427 119.517 37.7253 117.981 39.048C116.487 40.328 115.293 42.0347 114.397 44.168C113.501 46.3013 113.053 48.5627 113.053 50.952C113.053 52.2747 113.309 53.256 113.821 53.896C114.375 54.536 115.122 54.856 116.061 54.856ZM146.507 37.256C146.422 39.3893 146.379 41.0533 146.379 42.248C146.379 45.32 146.528 47.7307 146.827 49.48C147.168 51.1867 147.702 52.424 148.427 53.192C149.195 53.9173 150.24 54.28 151.563 54.28C152.246 54.28 153.056 54.0667 153.995 53.64C154.934 53.2133 155.787 52.6587 156.555 51.976C157.024 51.5493 157.494 51.336 157.963 51.336C158.475 51.336 158.88 51.6347 159.179 52.232C159.52 52.7867 159.691 53.4693 159.691 54.28C159.691 55.0907 159.52 55.88 159.179 56.648C158.88 57.416 158.411 58.056 157.771 58.568C155.552 60.4027 153.035 61.32 150.219 61.32C146.166 61.32 143.2 59.6347 141.323 56.264C139.446 52.8507 138.507 48.4133 138.507 42.952C138.507 41.0747 138.571 39.176 138.699 37.256H136.203C134.923 37.256 134.048 37.0213 133.579 36.552C133.152 36.0827 132.939 35.336 132.939 34.312C132.939 31.9227 133.899 30.728 135.819 30.728H139.467C140.192 26.0347 141.302 21.7467 142.795 17.864C144.288 13.9813 146.08 10.888 148.171 8.584C150.304 6.28 152.587 5.128 155.019 5.128C156.811 5.128 158.219 5.91733 159.243 7.496C160.267 9.07467 160.779 11.0587 160.779 13.448C160.779 20.0613 158.006 25.8213 152.459 30.728H159.627C160.31 30.728 160.8 30.8773 161.099 31.176C161.398 31.4747 161.547 32.0293 161.547 32.84C161.547 35.784 159.136 37.256 154.315 37.256H146.507ZM153.291 11.272C152.651 11.272 151.926 12.0827 151.115 13.704C150.347 15.2827 149.6 17.5013 148.875 20.36C148.192 23.176 147.616 26.312 147.147 29.768C149.664 27.592 151.542 25.16 152.779 22.472C154.059 19.7413 154.699 17.2667 154.699 15.048C154.699 12.5307 154.23 11.272 153.291 11.272ZM268.583 20.04C268.583 23.6667 267.303 26.8027 264.743 29.448C262.183 32.0507 258.45 33.928 253.543 35.08C256.189 35.8053 258.194 37 259.559 38.664C260.925 40.2853 261.607 42.1627 261.607 44.296C261.607 47.6667 260.541 50.5893 258.407 53.064C256.317 55.5387 253.245 57.4587 249.191 58.824C245.138 60.1467 240.253 60.808 234.535 60.808C232.402 60.808 230.695 60.744 229.415 60.616C229.373 61.8107 228.861 62.7067 227.879 63.304C226.898 63.9013 225.639 64.2 224.103 64.2C222.567 64.2 221.501 63.8587 220.903 63.176C220.349 62.4933 220.114 61.4907 220.199 60.168C220.583 54.1947 221.33 47.944 222.439 41.416C223.549 34.8453 224.957 28.5093 226.663 22.408C226.962 21.3413 227.559 20.5947 228.455 20.168C229.351 19.7413 230.525 19.528 231.975 19.528C234.578 19.528 235.879 20.2533 235.879 21.704C235.879 22.3013 235.751 22.984 235.495 23.752C234.386 27.08 233.277 31.6027 232.167 37.32C231.058 42.9947 230.269 48.4133 229.799 53.576C231.847 53.7467 233.511 53.832 234.791 53.832C240.765 53.832 245.138 52.9787 247.911 51.272C250.727 49.5227 252.135 47.304 252.135 44.616C252.135 42.7387 251.325 41.16 249.703 39.88C248.125 38.6 245.458 37.896 241.703 37.768C240.85 37.7253 240.253 37.512 239.911 37.128C239.57 36.744 239.399 36.1253 239.399 35.272C239.399 34.0347 239.655 33.032 240.167 32.264C240.679 31.496 241.618 31.0907 242.983 31.048C246.013 30.9627 248.743 30.5147 251.175 29.704C253.65 28.8933 255.591 27.7627 256.999 26.312C258.407 24.8187 259.111 23.0907 259.111 21.128C259.111 18.6533 257.895 16.712 255.463 15.304C253.031 13.8533 249.298 13.128 244.263 13.128C239.698 13.128 235.282 13.7253 231.015 14.92C226.749 16.072 223.122 17.544 220.135 19.336C218.77 20.1467 217.618 20.552 216.679 20.552C215.911 20.552 215.314 20.296 214.887 19.784C214.503 19.2293 214.311 18.5467 214.311 17.736C214.311 16.6693 214.525 15.752 214.951 14.984C215.421 14.216 216.509 13.3413 218.215 12.36C221.799 10.312 226.002 8.712 230.823 7.56C235.645 6.408 240.573 5.832 245.607 5.832C253.33 5.832 259.09 7.13333 262.887 9.736C266.685 12.3387 268.583 15.7733 268.583 20.04ZM274.35 61.32C271.705 61.32 269.593 60.36 268.014 58.44C266.436 56.52 265.646 54.0027 265.646 50.888C265.646 47.4747 266.436 44.2533 268.014 41.224C269.593 38.152 271.684 35.6987 274.286 33.864C276.932 31.9867 279.726 31.048 282.67 31.048C283.609 31.048 284.228 31.24 284.526 31.624C284.868 31.9653 285.145 32.6053 285.358 33.544C286.254 33.3733 287.193 33.288 288.174 33.288C290.265 33.288 291.31 34.0347 291.31 35.528C291.31 36.424 290.99 38.5573 290.35 41.928C289.369 46.8347 288.878 50.248 288.878 52.168C288.878 52.808 289.028 53.32 289.326 53.704C289.668 54.088 290.094 54.28 290.606 54.28C291.417 54.28 292.398 53.768 293.55 52.744C294.702 51.6773 296.26 49.9707 298.222 47.624C298.734 47.0267 299.31 46.728 299.95 46.728C300.505 46.728 300.932 46.984 301.23 47.496C301.572 48.008 301.742 48.712 301.742 49.608C301.742 51.3147 301.337 52.6373 300.526 53.576C298.777 55.752 296.921 57.5867 294.958 59.08C292.996 60.5733 291.097 61.32 289.262 61.32C287.854 61.32 286.553 60.8507 285.358 59.912C284.206 58.9307 283.332 57.608 282.734 55.944C280.516 59.528 277.721 61.32 274.35 61.32ZM276.654 54.856C277.593 54.856 278.489 54.3013 279.342 53.192C280.196 52.0827 280.814 50.6107 281.198 48.776L283.566 37C281.774 37.0427 280.11 37.7253 278.574 39.048C277.081 40.328 275.886 42.0347 274.99 44.168C274.094 46.3013 273.646 48.5627 273.646 50.952C273.646 52.2747 273.902 53.256 274.414 53.896C274.969 54.536 275.716 54.856 276.654 54.856ZM333.533 46.728C334.087 46.728 334.514 46.984 334.813 47.496C335.154 48.008 335.325 48.712 335.325 49.608C335.325 51.3147 334.919 52.6373 334.109 53.576C332.189 55.9227 330.247 57.8 328.285 59.208C326.322 60.616 323.997 61.32 321.309 61.32C318.023 61.32 315.378 60.3813 313.373 58.504C311.367 56.6267 310.365 54.1307 310.365 51.016C310.365 49.352 311.218 48.1573 312.925 47.432C314.802 46.6213 316.146 45.768 316.957 44.872C317.767 43.9333 318.173 42.8027 318.173 41.48C318.173 40.712 318.002 40.136 317.661 39.752C317.362 39.368 316.978 39.176 316.509 39.176C315.357 39.176 314.077 40.008 312.669 41.672C311.303 43.336 310.023 45.4907 308.829 48.136C307.634 50.7387 306.695 53.4267 306.013 56.2C305.543 58.2053 304.989 59.5707 304.349 60.296C303.751 60.9787 302.791 61.32 301.469 61.32C300.146 61.32 299.165 60.8507 298.525 59.912C297.927 58.9307 297.522 57.4373 297.309 55.432C297.095 53.4267 296.989 50.4827 296.989 46.6C296.989 40.0293 297.65 33.1813 298.973 26.056C300.338 18.9307 302.322 12.9573 304.925 8.136C307.57 3.272 310.727 0.839996 314.397 0.839996C316.359 0.839996 317.938 1.69333 319.133 3.4C320.37 5.064 320.989 7.24 320.989 9.928C320.989 14.2373 319.73 18.7173 317.213 23.368C314.695 27.976 310.599 33.3733 304.925 39.56C304.797 41.7787 304.733 44.0613 304.733 46.408C306.781 41.0747 309.127 37.2133 311.773 34.824C314.418 32.392 316.893 31.176 319.197 31.176C321.33 31.176 323.037 31.9013 324.317 33.352C325.639 34.8027 326.301 36.5947 326.301 38.728C326.301 41.0747 325.703 43.2293 324.509 45.192C323.314 47.1547 321.266 48.904 318.365 50.44C318.535 51.592 319.047 52.5307 319.901 53.256C320.797 53.9387 321.863 54.28 323.101 54.28C324.423 54.28 325.703 53.768 326.941 52.744C328.178 51.72 329.799 50.0133 331.805 47.624C332.317 47.0267 332.893 46.728 333.533 46.728ZM313.053 7.176C312.285 7.176 311.431 8.28533 310.493 10.504C309.554 12.68 308.637 15.6453 307.741 19.4C306.887 23.112 306.183 27.1653 305.629 31.56C308.274 28.4453 310.45 25.0533 312.157 21.384C313.906 17.7147 314.781 14.3867 314.781 11.4C314.781 10.0347 314.631 8.98933 314.333 8.264C314.034 7.53866 313.607 7.176 313.053 7.176ZM353.078 48.648C353.632 48.648 354.059 48.904 354.358 49.416C354.699 49.928 354.87 50.632 354.87 51.528C354.87 53.064 354.507 54.3867 353.782 55.496C352.587 57.3307 351.008 58.76 349.046 59.784C347.126 60.808 344.822 61.32 342.134 61.32C338.038 61.32 334.859 60.104 332.598 57.672C330.336 55.1973 329.206 51.8693 329.206 47.688C329.206 44.744 329.824 42.0133 331.062 39.496C332.299 36.936 334.006 34.9093 336.182 33.416C338.4 31.9227 340.896 31.176 343.67 31.176C346.144 31.176 348.128 31.9227 349.622 33.416C351.115 34.8667 351.862 36.8507 351.862 39.368C351.862 42.312 350.795 44.8507 348.662 46.984C346.571 49.0747 342.987 50.7387 337.91 51.976C338.934 53.9387 340.662 54.92 343.094 54.92C344.843 54.92 346.272 54.5147 347.382 53.704C348.534 52.8933 349.856 51.528 351.35 49.608C351.862 48.968 352.438 48.648 353.078 48.648ZM342.582 37.448C341.003 37.448 339.659 38.3653 338.55 40.2C337.483 42.0347 336.95 44.2533 336.95 46.856V46.984C339.467 46.3867 341.451 45.4907 342.902 44.296C344.352 43.1013 345.078 41.7147 345.078 40.136C345.078 39.3253 344.843 38.6853 344.374 38.216C343.947 37.704 343.35 37.448 342.582 37.448ZM375.124 61.1C373.817 61.1 372.797 60.7333 372.064 60C371.344 59.2533 370.984 58.2733 370.984 57.06C370.984 55.98 371.197 55.0333 371.624 54.22C372.05 53.4067 372.604 52.78 373.284 52.34C373.964 51.9 374.677 51.68 375.424 51.68C376.157 51.68 376.724 51.9 377.124 52.34C377.537 52.7667 377.744 53.32 377.744 54C377.744 54.56 377.617 55.0333 377.364 55.42C377.124 55.8067 376.804 56 376.404 56C376.15 56 375.944 55.94 375.784 55.82C375.637 55.7 375.564 55.5333 375.564 55.32C375.564 55.2267 375.577 55.12 375.604 55C375.63 54.88 375.65 54.7933 375.664 54.74C375.73 54.54 375.764 54.3533 375.764 54.18C375.764 54.0067 375.717 53.8733 375.624 53.78C375.544 53.6867 375.424 53.64 375.264 53.64C374.957 53.64 374.67 53.78 374.404 54.06C374.137 54.3267 373.924 54.6933 373.764 55.16C373.604 55.6267 373.524 56.14 373.524 56.7C373.524 58.2467 374.197 59.02 375.544 59.02C376.09 59.02 376.677 58.84 377.304 58.48C377.944 58.1067 378.57 57.5533 379.184 56.82C379.344 56.6333 379.524 56.54 379.724 56.54C379.897 56.54 380.03 56.62 380.124 56.78C380.23 56.94 380.284 57.16 380.284 57.44C380.284 57.9467 380.157 58.36 379.904 58.68C379.277 59.4533 378.524 60.0533 377.644 60.48C376.777 60.8933 375.937 61.1 375.124 61.1ZM386.247 56.54C386.42 56.54 386.554 56.62 386.647 56.78C386.754 56.94 386.807 57.16 386.807 57.44C386.807 57.9733 386.68 58.3867 386.427 58.68C385.854 59.3867 385.227 59.9667 384.547 60.42C383.88 60.8733 383.12 61.1 382.267 61.1C381.094 61.1 380.22 60.5667 379.647 59.5C379.087 58.4333 378.807 57.0533 378.807 55.36C378.807 53.7333 379.014 51.88 379.427 49.8C379.854 47.72 380.474 45.9333 381.287 44.44C382.114 42.9467 383.094 42.2 384.227 42.2C384.867 42.2 385.367 42.5 385.727 43.1C386.1 43.6867 386.287 44.5333 386.287 45.64C386.287 47.2267 385.847 49.0667 384.967 51.16C384.087 53.2533 382.894 55.3267 381.387 57.38C381.48 57.9267 381.634 58.32 381.847 58.56C382.06 58.7867 382.34 58.9 382.687 58.9C383.234 58.9 383.714 58.7467 384.127 58.44C384.54 58.12 385.067 57.58 385.707 56.82C385.867 56.6333 386.047 56.54 386.247 56.54ZM383.787 44.18C383.48 44.18 383.134 44.7333 382.747 45.84C382.36 46.9467 382.02 48.32 381.727 49.96C381.434 51.6 381.274 53.1733 381.247 54.68C382.194 53.12 382.947 51.56 383.507 50C384.067 48.4267 384.347 46.9933 384.347 45.7C384.347 44.6867 384.16 44.18 383.787 44.18ZM387.81 50.36C387.25 50.36 386.83 50.2333 386.55 49.98C386.27 49.7133 386.13 49.3467 386.13 48.88C386.13 48.4133 386.31 48.0267 386.67 47.72C387.044 47.4 387.504 47.24 388.05 47.24C388.544 47.24 388.944 47.36 389.25 47.6C389.557 47.84 389.71 48.18 389.71 48.62C389.71 49.1533 389.537 49.58 389.19 49.9C388.844 50.2067 388.384 50.36 387.81 50.36ZM387.65 61.1C386.784 61.1 386.15 60.7933 385.75 60.18C385.364 59.5667 385.17 58.7533 385.17 57.74C385.17 57.14 385.244 56.3733 385.39 55.44C385.55 54.4933 385.75 53.6133 385.99 52.8C386.11 52.3733 386.27 52.08 386.47 51.92C386.67 51.76 386.99 51.68 387.43 51.68C388.11 51.68 388.45 51.9067 388.45 52.36C388.45 52.6933 388.324 53.4667 388.07 54.68C387.75 56.1467 387.59 57.14 387.59 57.66C387.59 58.06 387.644 58.3667 387.75 58.58C387.857 58.7933 388.037 58.9 388.29 58.9C388.53 58.9 388.83 58.7333 389.19 58.4C389.55 58.0667 390.03 57.54 390.63 56.82C390.79 56.6333 390.97 56.54 391.17 56.54C391.344 56.54 391.477 56.62 391.57 56.78C391.677 56.94 391.73 57.16 391.73 57.44C391.73 57.9733 391.604 58.3867 391.35 58.68C390.03 60.2933 388.797 61.1 387.65 61.1ZM399.032 56.54C399.206 56.54 399.339 56.62 399.432 56.78C399.539 56.94 399.592 57.16 399.592 57.44C399.592 57.9733 399.466 58.3867 399.212 58.68C398.719 59.28 398.019 59.8333 397.112 60.34C396.219 60.8467 395.259 61.1 394.232 61.1C392.832 61.1 391.746 60.72 390.972 59.96C390.199 59.2 389.812 58.16 389.812 56.84C389.812 55.92 390.006 55.0667 390.392 54.28C390.779 53.48 391.312 52.8467 391.992 52.38C392.686 51.9133 393.466 51.68 394.332 51.68C395.106 51.68 395.726 51.9133 396.192 52.38C396.659 52.8333 396.892 53.4533 396.892 54.24C396.892 55.16 396.559 55.9533 395.892 56.62C395.239 57.2733 394.126 57.7933 392.552 58.18C392.886 58.7933 393.519 59.1 394.452 59.1C395.052 59.1 395.732 58.8933 396.492 58.48C397.266 58.0533 397.932 57.5 398.492 56.82C398.652 56.6333 398.832 56.54 399.032 56.54ZM393.992 53.64C393.499 53.64 393.079 53.9267 392.732 54.5C392.399 55.0733 392.232 55.7667 392.232 56.58V56.62C393.019 56.4333 393.639 56.1533 394.092 55.78C394.546 55.4067 394.772 54.9733 394.772 54.48C394.772 54.2267 394.699 54.0267 394.552 53.88C394.419 53.72 394.232 53.64 393.992 53.64ZM399.384 61.1C398.877 61.1 398.517 60.8333 398.304 60.3C398.104 59.7667 398.004 58.9133 398.004 57.74C398.004 56.0067 398.251 54.36 398.744 52.8C398.864 52.4133 399.057 52.1333 399.324 51.96C399.604 51.7733 399.991 51.68 400.484 51.68C400.751 51.68 400.937 51.7133 401.044 51.78C401.151 51.8467 401.204 51.9733 401.204 52.16C401.204 52.3733 401.104 52.8533 400.904 53.6C400.771 54.1333 400.664 54.6 400.584 55C400.504 55.4 400.437 55.8933 400.384 56.48C400.824 55.3333 401.317 54.4 401.864 53.68C402.411 52.96 402.944 52.4467 403.464 52.14C403.997 51.8333 404.484 51.68 404.924 51.68C405.791 51.68 406.224 52.1133 406.224 52.98C406.224 53.5 406.077 54.44 405.784 55.8C405.531 56.96 405.404 57.7267 405.404 58.1C405.404 58.6333 405.597 58.9 405.984 58.9C406.251 58.9 406.564 58.74 406.924 58.42C407.297 58.0867 407.791 57.5533 408.404 56.82C408.564 56.6333 408.744 56.54 408.944 56.54C409.117 56.54 409.251 56.62 409.344 56.78C409.451 56.94 409.504 57.16 409.504 57.44C409.504 57.9733 409.377 58.3867 409.124 58.68C408.551 59.3867 407.931 59.9667 407.264 60.42C406.611 60.8733 405.864 61.1 405.024 61.1C404.344 61.1 403.831 60.9067 403.484 60.52C403.137 60.12 402.964 59.5467 402.964 58.8C402.964 58.4267 403.057 57.76 403.244 56.8C403.417 55.96 403.504 55.38 403.504 55.06C403.504 54.8467 403.431 54.74 403.284 54.74C403.111 54.74 402.864 54.9667 402.544 55.42C402.237 55.86 401.917 56.4467 401.584 57.18C401.264 57.9133 401.004 58.6867 400.804 59.5C400.657 60.1267 400.484 60.5533 400.284 60.78C400.097 60.9933 399.797 61.1 399.384 61.1ZM411.186 53.58C411.159 54.2467 411.146 54.7667 411.146 55.14C411.146 56.1 411.192 56.8533 411.286 57.4C411.392 57.9333 411.559 58.32 411.786 58.56C412.026 58.7867 412.352 58.9 412.766 58.9C412.979 58.9 413.232 58.8333 413.526 58.7C413.819 58.5667 414.086 58.3933 414.326 58.18C414.472 58.0467 414.619 57.98 414.766 57.98C414.926 57.98 415.052 58.0733 415.146 58.26C415.252 58.4333 415.306 58.6467 415.306 58.9C415.306 59.1533 415.252 59.4 415.146 59.64C415.052 59.88 414.906 60.08 414.706 60.24C414.012 60.8133 413.226 61.1 412.346 61.1C411.079 61.1 410.152 60.5733 409.566 59.52C408.979 58.4533 408.686 57.0667 408.686 55.36C408.686 54.7733 408.706 54.18 408.746 53.58H407.966C407.566 53.58 407.292 53.5067 407.146 53.36C407.012 53.2133 406.946 52.98 406.946 52.66C406.946 51.9133 407.246 51.54 407.846 51.54H408.986C409.212 50.0733 409.559 48.7333 410.026 47.52C410.492 46.3067 411.052 45.34 411.706 44.62C412.372 43.9 413.086 43.54 413.846 43.54C414.406 43.54 414.846 43.7867 415.166 44.28C415.486 44.7733 415.646 45.3933 415.646 46.14C415.646 48.2067 414.779 50.0067 413.046 51.54H415.286C415.499 51.54 415.652 51.5867 415.746 51.68C415.839 51.7733 415.886 51.9467 415.886 52.2C415.886 53.12 415.132 53.58 413.626 53.58H411.186ZM413.306 45.46C413.106 45.46 412.879 45.7133 412.626 46.22C412.386 46.7133 412.152 47.4067 411.926 48.3C411.712 49.18 411.532 50.16 411.386 51.24C412.172 50.56 412.759 49.8 413.146 48.96C413.546 48.1067 413.746 47.3333 413.746 46.64C413.746 45.8533 413.599 45.46 413.306 45.46Z" fill="white"/>
<path d="M205.009 50.248C206.353 50.248 207.377 50.696 208.081 51.592C208.785 52.488 209.137 53.608 209.137 54.952C209.137 56.616 208.593 58.12 207.505 59.464C206.481 60.744 205.073 61.384 203.281 61.384C200.209 61.384 195.633 61.16 189.553 60.712C188.337 60.648 186.097 60.52 182.833 60.328C179.569 60.136 177.009 60.04 175.153 60.04C174.321 60.04 173.105 60.328 171.505 60.904C171.185 60.968 170.545 61.128 169.585 61.384C168.689 61.64 167.921 61.768 167.281 61.768C166.257 61.768 165.393 61.32 164.689 60.424C164.049 59.464 163.729 58.056 163.729 56.2C163.729 54.152 164.209 52.584 165.169 51.496C166.129 50.344 167.633 49.32 169.681 48.424C174.033 46.504 178.129 44.072 181.969 41.128C185.873 38.12 188.977 34.888 191.281 31.432C193.649 27.976 194.833 24.68 194.833 21.544C194.833 19.048 194.257 17.224 193.105 16.072C192.017 14.856 190.257 14.248 187.825 14.248C185.009 14.248 182.737 15.016 181.009 16.552C179.345 18.088 178.513 20.232 178.513 22.984C178.513 26.76 176.625 28.648 172.849 28.648C171.057 28.648 169.649 28.136 168.625 27.112C167.665 26.088 167.185 24.616 167.185 22.696C167.185 19.496 168.017 16.552 169.681 13.864C171.345 11.176 173.841 9.032 177.169 7.432C180.497 5.768 184.561 4.936 189.361 4.936C195.121 4.936 199.633 6.376 202.897 9.256C206.161 12.136 207.792 16.136 207.792 21.256C207.792 26.12 205.649 31.208 201.361 36.52C197.137 41.832 191.025 46.536 183.025 50.632L205.009 50.248Z" fill="#D4AF37"/>
</svg>
