<svg width="197" height="36" viewBox="0 0 197 36" fill="none" xmlns="http://www.w3.org/2000/svg">
<path d="M43.448 18.448C44 18.448 44.396 18.568 44.636 18.808C44.9 19.048 45.032 19.36 45.032 19.744C45.032 20.368 44.84 20.92 44.456 21.4C44.096 21.88 43.52 22.132 42.728 22.156C40.832 22.18 39.128 22.036 37.616 21.724C35.936 25.3 33.908 28.276 31.532 30.652C29.18 33.004 26.852 34.18 24.548 34.18C22.436 34.18 20.852 33.064 19.796 30.832C18.74 28.576 18.14 25.564 17.996 21.796C16.556 25.972 14.924 29.08 13.1 31.12C11.3 33.16 9.38 34.18 7.34 34.18C5.036 34.18 3.296 32.752 2.12 29.896C0.944 27.016 0.356 23.152 0.356 18.304C0.356 14.776 0.668 10.9 1.292 6.676C1.46 5.476 1.76 4.648 2.192 4.192C2.648 3.712 3.356 3.472 4.316 3.472C5.036 3.472 5.588 3.628 5.972 3.94C6.38 4.252 6.584 4.828 6.584 5.668C6.584 5.836 6.56 6.16 6.512 6.64C5.792 11.56 5.432 15.748 5.432 19.204C5.432 22.42 5.708 24.904 6.26 26.656C6.812 28.408 7.556 29.284 8.492 29.284C9.332 29.284 10.34 28.408 11.516 26.656C12.716 24.88 13.904 22.264 15.08 18.808C16.256 15.328 17.252 11.188 18.068 6.388C18.26 5.284 18.608 4.528 19.112 4.12C19.64 3.688 20.348 3.472 21.236 3.472C21.98 3.472 22.52 3.64 22.856 3.976C23.216 4.288 23.396 4.768 23.396 5.416C23.396 5.8 23.372 6.1 23.324 6.316C22.652 10.228 22.316 14.14 22.316 18.052C22.316 20.716 22.4 22.84 22.568 24.424C22.76 26.008 23.108 27.22 23.612 28.06C24.14 28.876 24.896 29.284 25.88 29.284C27.032 29.284 28.316 28.42 29.732 26.692C31.148 24.94 32.444 22.768 33.62 20.176C32.156 19.264 31.052 18.088 30.308 16.648C29.564 15.184 29.192 13.504 29.192 11.608C29.192 9.712 29.48 8.116 30.056 6.82C30.656 5.5 31.46 4.516 32.468 3.868C33.5 3.22 34.64 2.896 35.888 2.896C37.424 2.896 38.636 3.448 39.524 4.552C40.436 5.656 40.892 7.168 40.892 9.088C40.892 11.8 40.304 14.812 39.128 18.124C40.352 18.34 41.792 18.448 43.448 18.448ZM32.828 11.356C32.828 13.708 33.584 15.448 35.096 16.576C36.032 13.888 36.5 11.668 36.5 9.916C36.5 8.908 36.368 8.176 36.104 7.72C35.84 7.24 35.48 7 35.024 7C34.376 7 33.848 7.384 33.44 8.152C33.032 8.896 32.828 9.964 32.828 11.356ZM61.5127 25.972C61.8247 25.972 62.0647 26.116 62.2327 26.404C62.4247 26.692 62.5207 27.088 62.5207 27.592C62.5207 28.552 62.2927 29.296 61.8367 29.824C60.7327 31.096 59.5927 32.14 58.4167 32.956C57.2647 33.772 55.9447 34.18 54.4567 34.18C53.2327 34.18 52.3087 33.832 51.6847 33.136C51.0607 32.416 50.7487 31.384 50.7487 30.04C50.7487 29.368 50.9167 28.168 51.2527 26.44C51.5647 24.928 51.7207 23.884 51.7207 23.308C51.7207 22.924 51.5887 22.732 51.3247 22.732C51.0127 22.732 50.5687 23.14 49.9927 23.956C49.4167 24.748 48.8407 25.804 48.2647 27.124C47.6887 28.444 47.2207 29.836 46.8607 31.3C46.4047 33.22 45.2767 34.18 43.4767 34.18C42.7567 34.18 42.2767 33.928 42.0367 33.424C41.8207 32.896 41.7127 31.96 41.7127 30.616C41.7127 29.848 41.7247 29.236 41.7487 28.78L41.7847 25.9C41.7847 22.204 42.1567 18.352 42.9007 14.344C43.6687 10.336 44.7847 6.976 46.2487 4.264C47.7367 1.528 49.5127 0.159998 51.5767 0.159998C52.6807 0.159998 53.5687 0.639998 54.2407 1.6C54.9367 2.536 55.2847 3.76 55.2847 5.272C55.2847 7.696 54.5767 10.216 53.1607 12.832C51.7447 15.424 49.4407 18.46 46.2487 21.94C46.1767 23.188 46.1407 24.472 46.1407 25.792C46.9327 23.752 47.8087 22.096 48.7687 20.824C49.7527 19.528 50.7127 18.604 51.6487 18.052C52.6087 17.5 53.4847 17.224 54.2767 17.224C55.8367 17.224 56.6167 18.004 56.6167 19.564C56.6167 20.5 56.3527 22.192 55.8247 24.64C55.3687 26.728 55.1407 28.108 55.1407 28.78C55.1407 29.74 55.4887 30.22 56.1847 30.22C56.6647 30.22 57.2287 29.932 57.8767 29.356C58.5487 28.756 59.4367 27.796 60.5407 26.476C60.8287 26.14 61.1527 25.972 61.5127 25.972ZM50.8207 3.724C50.3887 3.724 49.9087 4.348 49.3807 5.596C48.8527 6.82 48.3367 8.488 47.8327 10.6C47.3527 12.688 46.9567 14.968 46.6447 17.44C48.1327 15.688 49.3567 13.78 50.3167 11.716C51.3007 9.652 51.7927 7.78 51.7927 6.1C51.7927 5.332 51.7087 4.744 51.5407 4.336C51.3727 3.928 51.1327 3.724 50.8207 3.724ZM64.031 34.18C62.543 34.18 61.355 33.64 60.467 32.56C59.579 31.48 59.135 30.064 59.135 28.312C59.135 26.392 59.579 24.58 60.467 22.876C61.355 21.148 62.531 19.768 63.995 18.736C65.483 17.68 67.055 17.152 68.711 17.152C69.239 17.152 69.587 17.26 69.755 17.476C69.947 17.668 70.103 18.028 70.223 18.556C70.727 18.46 71.255 18.412 71.807 18.412C72.983 18.412 73.571 18.832 73.571 19.672C73.571 20.176 73.391 21.376 73.031 23.272C72.479 26.032 72.203 27.952 72.203 29.032C72.203 29.392 72.287 29.68 72.455 29.896C72.647 30.112 72.887 30.22 73.175 30.22C73.631 30.22 74.183 29.932 74.831 29.356C75.479 28.756 76.355 27.796 77.459 26.476C77.747 26.14 78.071 25.972 78.431 25.972C78.743 25.972 78.983 26.116 79.151 26.404C79.343 26.692 79.439 27.088 79.439 27.592C79.439 28.552 79.211 29.296 78.755 29.824C77.771 31.048 76.727 32.08 75.623 32.92C74.519 33.76 73.451 34.18 72.419 34.18C71.627 34.18 70.895 33.916 70.223 33.388C69.575 32.836 69.083 32.092 68.747 31.156C67.499 33.172 65.927 34.18 64.031 34.18ZM65.327 30.544C65.855 30.544 66.359 30.232 66.839 29.608C67.319 28.984 67.667 28.156 67.883 27.124L69.215 20.5C68.207 20.524 67.271 20.908 66.407 21.652C65.567 22.372 64.895 23.332 64.391 24.532C63.887 25.732 63.635 27.004 63.635 28.348C63.635 29.092 63.779 29.644 64.067 30.004C64.379 30.364 64.799 30.544 65.327 30.544ZM82.4532 20.644C82.4052 21.844 82.3812 22.78 82.3812 23.452C82.3812 25.18 82.4652 26.536 82.6332 27.52C82.8252 28.48 83.1252 29.176 83.5332 29.608C83.9652 30.016 84.5532 30.22 85.2972 30.22C85.6812 30.22 86.1372 30.1 86.6652 29.86C87.1932 29.62 87.6732 29.308 88.1052 28.924C88.3692 28.684 88.6332 28.564 88.8972 28.564C89.1852 28.564 89.4132 28.732 89.5812 29.068C89.7732 29.38 89.8692 29.764 89.8692 30.22C89.8692 30.676 89.7732 31.12 89.5812 31.552C89.4132 31.984 89.1492 32.344 88.7892 32.632C87.5412 33.664 86.1252 34.18 84.5412 34.18C82.2612 34.18 80.5932 33.232 79.5372 31.336C78.4812 29.416 77.9532 26.92 77.9532 23.848C77.9532 22.792 77.9892 21.724 78.0612 20.644H76.6572C75.9372 20.644 75.4452 20.512 75.1812 20.248C74.9412 19.984 74.8212 19.564 74.8212 18.988C74.8212 17.644 75.3612 16.972 76.4412 16.972H78.4932C78.9012 14.332 79.5252 11.92 80.3652 9.736C81.2052 7.552 82.2132 5.812 83.3892 4.516C84.5892 3.22 85.8732 2.572 87.2412 2.572C88.2492 2.572 89.0412 3.016 89.6172 3.904C90.1932 4.792 90.4812 5.908 90.4812 7.252C90.4812 10.972 88.9212 14.212 85.8012 16.972H89.8332C90.2172 16.972 90.4932 17.056 90.6612 17.224C90.8292 17.392 90.9132 17.704 90.9132 18.16C90.9132 19.816 89.5572 20.644 86.8452 20.644H82.4532ZM86.2692 6.028C85.9092 6.028 85.5012 6.484 85.0452 7.396C84.6132 8.284 84.1932 9.532 83.7852 11.14C83.4012 12.724 83.0772 14.488 82.8132 16.432C84.2292 15.208 85.2852 13.84 85.9812 12.328C86.7012 10.792 87.0612 9.4 87.0612 8.152C87.0612 6.736 86.7972 6.028 86.2692 6.028ZM147.764 10.96C147.764 13 147.044 14.764 145.604 16.252C144.164 17.716 142.064 18.772 139.304 19.42C140.792 19.828 141.92 20.5 142.688 21.436C143.456 22.348 143.84 23.404 143.84 24.604C143.84 26.5 143.24 28.144 142.04 29.536C140.864 30.928 139.136 32.008 136.856 32.776C134.576 33.52 131.828 33.892 128.612 33.892C127.412 33.892 126.452 33.856 125.732 33.784C125.708 34.456 125.42 34.96 124.868 35.296C124.316 35.632 123.608 35.8 122.744 35.8C121.88 35.8 121.28 35.608 120.944 35.224C120.632 34.84 120.5 34.276 120.548 33.532C120.764 30.172 121.184 26.656 121.808 22.984C122.432 19.288 123.224 15.724 124.184 12.292C124.352 11.692 124.688 11.272 125.192 11.032C125.696 10.792 126.356 10.672 127.172 10.672C128.636 10.672 129.368 11.08 129.368 11.896C129.368 12.232 129.296 12.616 129.152 13.048C128.528 14.92 127.904 17.464 127.28 20.68C126.656 23.872 126.212 26.92 125.948 29.824C127.1 29.92 128.036 29.968 128.756 29.968C132.116 29.968 134.576 29.488 136.136 28.528C137.72 27.544 138.512 26.296 138.512 24.784C138.512 23.728 138.056 22.84 137.144 22.12C136.256 21.4 134.756 21.004 132.644 20.932C132.164 20.908 131.828 20.788 131.636 20.572C131.444 20.356 131.348 20.008 131.348 19.528C131.348 18.832 131.492 18.268 131.78 17.836C132.068 17.404 132.596 17.176 133.364 17.152C135.068 17.104 136.604 16.852 137.972 16.396C139.364 15.94 140.456 15.304 141.248 14.488C142.04 13.648 142.436 12.676 142.436 11.572C142.436 10.18 141.752 9.088 140.384 8.296C139.016 7.48 136.916 7.072 134.084 7.072C131.516 7.072 129.032 7.408 126.632 8.08C124.232 8.728 122.192 9.556 120.512 10.564C119.744 11.02 119.096 11.248 118.568 11.248C118.136 11.248 117.8 11.104 117.56 10.816C117.344 10.504 117.236 10.12 117.236 9.664C117.236 9.064 117.356 8.548 117.596 8.116C117.86 7.684 118.472 7.192 119.432 6.64C121.448 5.488 123.812 4.588 126.524 3.94C129.236 3.292 132.008 2.968 134.84 2.968C139.184 2.968 142.424 3.7 144.56 5.164C146.696 6.628 147.764 8.56 147.764 10.96ZM151.008 34.18C149.52 34.18 148.332 33.64 147.444 32.56C146.556 31.48 146.112 30.064 146.112 28.312C146.112 26.392 146.556 24.58 147.444 22.876C148.332 21.148 149.508 19.768 150.972 18.736C152.46 17.68 154.032 17.152 155.688 17.152C156.216 17.152 156.564 17.26 156.732 17.476C156.924 17.668 157.08 18.028 157.2 18.556C157.704 18.46 158.232 18.412 158.784 18.412C159.96 18.412 160.548 18.832 160.548 19.672C160.548 20.176 160.368 21.376 160.008 23.272C159.456 26.032 159.18 27.952 159.18 29.032C159.18 29.392 159.264 29.68 159.432 29.896C159.624 30.112 159.864 30.22 160.152 30.22C160.608 30.22 161.16 29.932 161.808 29.356C162.456 28.756 163.332 27.796 164.436 26.476C164.724 26.14 165.048 25.972 165.408 25.972C165.72 25.972 165.96 26.116 166.128 26.404C166.32 26.692 166.416 27.088 166.416 27.592C166.416 28.552 166.188 29.296 165.732 29.824C164.748 31.048 163.704 32.08 162.6 32.92C161.496 33.76 160.428 34.18 159.396 34.18C158.604 34.18 157.872 33.916 157.2 33.388C156.552 32.836 156.06 32.092 155.724 31.156C154.476 33.172 152.904 34.18 151.008 34.18ZM152.304 30.544C152.832 30.544 153.336 30.232 153.816 29.608C154.296 28.984 154.644 28.156 154.86 27.124L156.192 20.5C155.184 20.524 154.248 20.908 153.384 21.652C152.544 22.372 151.872 23.332 151.368 24.532C150.864 25.732 150.612 27.004 150.612 28.348C150.612 29.092 150.756 29.644 151.044 30.004C151.356 30.364 151.776 30.544 152.304 30.544ZM184.298 25.972C184.61 25.972 184.85 26.116 185.018 26.404C185.21 26.692 185.306 27.088 185.306 27.592C185.306 28.552 185.078 29.296 184.622 29.824C183.542 31.144 182.45 32.2 181.346 32.992C180.242 33.784 178.934 34.18 177.422 34.18C175.574 34.18 174.086 33.652 172.958 32.596C171.83 31.54 171.266 30.136 171.266 28.384C171.266 27.448 171.746 26.776 172.706 26.368C173.762 25.912 174.518 25.432 174.974 24.928C175.43 24.4 175.658 23.764 175.658 23.02C175.658 22.588 175.562 22.264 175.37 22.048C175.202 21.832 174.986 21.724 174.722 21.724C174.074 21.724 173.354 22.192 172.562 23.128C171.794 24.064 171.074 25.276 170.402 26.764C169.73 28.228 169.202 29.74 168.818 31.3C168.554 32.428 168.242 33.196 167.882 33.604C167.546 33.988 167.006 34.18 166.262 34.18C165.518 34.18 164.966 33.916 164.606 33.388C164.27 32.836 164.042 31.996 163.922 30.868C163.802 29.74 163.742 28.084 163.742 25.9C163.742 22.204 164.114 18.352 164.858 14.344C165.626 10.336 166.742 6.976 168.206 4.264C169.694 1.528 171.47 0.159998 173.534 0.159998C174.638 0.159998 175.526 0.639998 176.198 1.6C176.894 2.536 177.242 3.76 177.242 5.272C177.242 7.696 176.534 10.216 175.118 12.832C173.702 15.424 171.398 18.46 168.206 21.94C168.134 23.188 168.098 24.472 168.098 25.792C169.25 22.792 170.57 20.62 172.058 19.276C173.546 17.908 174.938 17.224 176.234 17.224C177.434 17.224 178.394 17.632 179.114 18.448C179.858 19.264 180.23 20.272 180.23 21.472C180.23 22.792 179.894 24.004 179.222 25.108C178.55 26.212 177.398 27.196 175.766 28.06C175.862 28.708 176.15 29.236 176.63 29.644C177.134 30.028 177.734 30.22 178.43 30.22C179.174 30.22 179.894 29.932 180.59 29.356C181.286 28.78 182.198 27.82 183.326 26.476C183.614 26.14 183.938 25.972 184.298 25.972ZM172.778 3.724C172.346 3.724 171.866 4.348 171.338 5.596C170.81 6.82 170.294 8.488 169.79 10.6C169.31 12.688 168.914 14.968 168.602 17.44C170.09 15.688 171.314 13.78 172.274 11.716C173.258 9.652 173.75 7.78 173.75 6.1C173.75 5.332 173.666 4.744 173.498 4.336C173.33 3.928 173.09 3.724 172.778 3.724ZM195.292 27.052C195.604 27.052 195.844 27.196 196.012 27.484C196.204 27.772 196.3 28.168 196.3 28.672C196.3 29.536 196.096 30.28 195.688 30.904C195.016 31.936 194.128 32.74 193.024 33.316C191.944 33.892 190.648 34.18 189.136 34.18C186.832 34.18 185.044 33.496 183.772 32.128C182.5 30.736 181.864 28.864 181.864 26.512C181.864 24.856 182.212 23.32 182.908 21.904C183.604 20.464 184.564 19.324 185.788 18.484C187.036 17.644 188.44 17.224 190 17.224C191.392 17.224 192.508 17.644 193.348 18.484C194.188 19.3 194.608 20.416 194.608 21.832C194.608 23.488 194.008 24.916 192.808 26.116C191.632 27.292 189.616 28.228 186.76 28.924C187.336 30.028 188.308 30.58 189.676 30.58C190.66 30.58 191.464 30.352 192.088 29.896C192.736 29.44 193.48 28.672 194.32 27.592C194.608 27.232 194.932 27.052 195.292 27.052ZM189.388 20.752C188.5 20.752 187.744 21.268 187.12 22.3C186.52 23.332 186.22 24.58 186.22 26.044V26.116C187.636 25.78 188.752 25.276 189.568 24.604C190.384 23.932 190.792 23.152 190.792 22.264C190.792 21.808 190.66 21.448 190.396 21.184C190.156 20.896 189.82 20.752 189.388 20.752Z" fill="#393838"/>
<path d="M112.504 28.624C113.176 28.624 113.688 28.848 114.04 29.296C114.392 29.744 114.568 30.304 114.568 30.976C114.568 31.808 114.296 32.56 113.752 33.232C113.24 33.872 112.536 34.192 111.64 34.192C110.104 34.192 107.816 34.08 104.776 33.856C104.168 33.824 103.048 33.76 101.416 33.664C99.7843 33.568 98.5043 33.52 97.5763 33.52C97.1603 33.52 96.5523 33.664 95.7523 33.952C95.5923 33.984 95.2723 34.064 94.7923 34.192C94.3443 34.32 93.9603 34.384 93.6403 34.384C93.1283 34.384 92.6963 34.16 92.3443 33.712C92.0243 33.232 91.8643 32.528 91.8643 31.6C91.8643 30.576 92.1043 29.792 92.5843 29.248C93.0643 28.672 93.8163 28.16 94.8403 27.712C97.0163 26.752 99.0643 25.536 100.984 24.064C102.936 22.56 104.488 20.944 105.64 19.216C106.824 17.488 107.416 15.84 107.416 14.272C107.416 13.024 107.128 12.112 106.552 11.536C106.008 10.928 105.128 10.624 103.912 10.624C102.504 10.624 101.368 11.008 100.504 11.776C99.6723 12.544 99.2563 13.616 99.2563 14.992C99.2563 16.88 98.3123 17.824 96.4243 17.824C95.5283 17.824 94.8243 17.568 94.3123 17.056C93.8323 16.544 93.5923 15.808 93.5923 14.848C93.5923 13.248 94.0083 11.776 94.8403 10.432C95.6723 9.088 96.9203 8.016 98.5843 7.216C100.248 6.384 102.28 5.968 104.68 5.968C107.56 5.968 109.816 6.688 111.448 8.128C113.08 9.568 113.896 11.568 113.896 14.128C113.896 16.56 112.824 19.104 110.68 21.76C108.568 24.416 105.512 26.768 101.512 28.816L112.504 28.624Z" fill="#D4AF37"/>
</svg>
