<svg width="30" height="30" viewBox="0 0 30 30" fill="none" xmlns="http://www.w3.org/2000/svg">
<path d="M28.3841 26.6163L21.29 19.5222C22.8861 17.5301 23.754 15.0526 23.75 12.5C23.75 6.28688 18.7134 1.25 12.5 1.25C6.28687 1.25 1.25 6.28688 1.25 12.5C1.25 18.7131 6.28687 23.75 12.5 23.75C15.1562 23.75 17.5975 22.8294 19.5222 21.2897L26.6162 28.3838C26.7322 28.5 26.8699 28.5922 27.0216 28.6551C27.1732 28.7179 27.3358 28.7502 27.5 28.75C27.7472 28.75 27.9889 28.6767 28.1944 28.5394C28.4 28.4021 28.5602 28.2069 28.6549 27.9785C28.7495 27.7501 28.7743 27.4988 28.7261 27.2563C28.6779 27.0138 28.5588 26.7911 28.3841 26.6163ZM12.5 21.25C7.6675 21.25 3.75 17.3325 3.75 12.5C3.75 7.6675 7.6675 3.75 12.5 3.75C17.3328 3.75 21.25 7.6675 21.25 12.5C21.25 17.3325 17.3328 21.25 12.5 21.25Z" fill="#C7C7C7"/>
</svg>
