<svg width="28" height="27" viewBox="0 0 28 27" fill="none" xmlns="http://www.w3.org/2000/svg">
<path d="M3.67011 26.4606H15.7719H15.7774C16.5799 26.4606 17.4849 26.1835 18.2858 25.5648C18.9114 26.1139 19.6891 26.4358 20.5412 26.4358C22.586 26.4358 24.4235 24.5732 24.8156 22.1026C25.1907 19.7003 24.1491 16.1879 21.7126 15.8341C20.9123 15.7183 20.0997 15.977 19.3381 16.5573C18.6885 15.4126 17.6352 14.3101 16.3374 14.0546V8.58126C16.3374 6.51608 15.2532 4.64039 13.5036 3.54322C13.8467 3.21214 14.0356 2.76961 14.0356 2.29668C14.0356 1.32765 13.2158 0.539307 12.2085 0.539307H7.23904C6.22544 0.539307 5.41193 1.32285 5.41193 2.29668C5.41193 2.77437 5.6108 3.21749 5.94589 3.54192C4.19516 4.63904 3.11011 6.51532 3.11011 8.58126V25.9206C3.11011 26.2188 3.3606 26.4606 3.67011 26.4606ZM13.0425 25.3806H4.23011V9.61908H15.2174V14.0511C12.678 14.5443 11.0901 18.1664 11.0901 20.7152C11.0901 22.4134 11.7546 24.2428 13.0425 25.3806ZM19.3332 20.7152C19.3332 22.9095 18.0068 25.3443 15.8172 25.3764C15.8025 25.3766 15.7883 25.3793 15.7736 25.3793C13.8092 25.3793 12.2112 23.2863 12.2112 20.7139C12.2112 18.5332 13.6876 15.0801 15.7755 15.0778C15.7784 15.0778 15.7812 15.0786 15.7841 15.0787C17.8922 15.0973 19.3332 18.5456 19.3332 20.7152ZM21.5464 16.902C23.2632 17.1513 23.9855 20.1684 23.7082 21.9402C23.3992 23.8874 22.038 25.3558 20.5412 25.3558C20.0238 25.3558 19.5102 25.1716 19.0723 24.8021C19.8857 23.8053 20.4554 22.3304 20.4554 20.7139C20.4554 19.6454 20.1763 18.4414 19.8264 17.568C20.4056 17.0631 20.999 16.8239 21.5464 16.902ZM7.23904 1.61931H12.2085C12.5984 1.61931 12.9156 1.92306 12.9156 2.29668C12.9156 2.69002 12.5834 2.97379 12.2583 2.97379C12.1998 2.97379 6.9068 2.97633 7.24208 2.97616C6.76965 2.94555 6.53193 2.6338 6.53193 2.29668C6.53193 1.92316 6.84083 1.61931 7.23904 1.61931ZM7.30081 4.05616C7.3576 4.05616 12.4738 4.05859 12.1513 4.05843C14.0037 4.84208 15.1969 6.58633 15.2142 8.53908H4.23336C4.2506 6.58466 5.4457 4.83884 7.30081 4.05616Z" fill="currentColor"/>
<path d="M9.9701 23.2205H7.66452C7.00607 23.2205 6.4701 22.704 6.4701 22.0691V18.0905C6.4701 17.7923 6.21967 17.5505 5.9101 17.5505C5.60059 17.5505 5.3501 17.7923 5.3501 18.0905V22.0691C5.3501 23.2996 6.38811 24.3005 7.66452 24.3005H9.9701C10.2797 24.3005 10.5301 24.0588 10.5301 23.7605C10.5301 23.4623 10.2797 23.2205 9.9701 23.2205Z" fill="currentColor"/>
</svg>
