<svg width="28" height="28" viewBox="0 0 28 28" fill="none" xmlns="http://www.w3.org/2000/svg">
<g clip-path="url(#clip0_156_623)">
<path d="M4.08325 25.6667C4.08325 24.7333 4.89992 23.9167 5.83325 23.9167H23.9166M4.08325 25.6667V2.33337C4.08325 1.40004 4.89992 0.583374 5.83325 0.583374H23.9166V23.9167M4.08325 25.6667C4.08325 26.6 4.89992 27.4167 5.83325 27.4167H23.9166C23.2166 26.3667 23.2166 24.9667 23.9166 23.9167M9.91659 15.75H18.0833" stroke="currentColor" stroke-width="1.2" stroke-linecap="round" stroke-linejoin="round"/>
<path d="M11.8999 8.86665C10.7333 8.51665 9.33323 9.09999 8.98323 10.3833C8.63323 11.4333 8.98323 12.4833 9.91657 13.0667V16.9167C9.91657 17.6167 10.3833 18.0833 11.0833 18.0833H16.9166C17.6166 18.0833 18.0833 17.6167 18.0833 16.9167V13.0667C19.1333 12.3667 19.4833 10.9667 18.7833 9.79999C18.1999 8.86665 17.0333 8.51665 16.0999 8.86665" stroke="currentColor" stroke-width="1.2" stroke-linecap="round" stroke-linejoin="round"/>
<path d="M11.6665 9.91671C11.6665 8.63337 12.7165 7.58337 13.9999 7.58337C15.2832 7.58337 16.3332 8.63337 16.3332 9.91671" stroke="currentColor" stroke-width="1.2" stroke-linecap="round" stroke-linejoin="round"/>
</g>
<defs>
<clipPath id="clip0_156_623">
<rect width="28" height="28" fill="white"/>
</clipPath>
</defs>
</svg>
