<svg width="28" height="29" viewBox="0 0 28 29" fill="none" xmlns="http://www.w3.org/2000/svg">
<path d="M14 24.1843C13.3577 24.1853 12.7258 24.0158 12.1647 23.6917C6.17972 20.2167 2.88403 15.936 2.88403 11.6386C2.88403 7.81058 5.46966 4.81226 8.77016 4.81226C9.75294 4.81313 10.7249 5.02461 11.625 5.43338C12.525 5.84216 13.3336 6.4394 14 7.18754C14.6664 6.4394 15.4751 5.84216 16.3751 5.43338C17.2752 5.02461 18.2471 4.81313 19.2299 4.81226C22.5304 4.81226 25.116 7.81058 25.116 11.6386C25.116 15.936 21.8203 20.2167 15.8353 23.6917C15.2743 24.0157 14.6424 24.1853 14 24.1843ZM8.77016 6.17163C6.16266 6.17163 4.19653 8.52199 4.19653 11.6386C4.19653 15.4226 7.25422 19.2819 12.8061 22.5054C13.1712 22.7158 13.5822 22.8263 14 22.8263C14.4179 22.8263 14.8288 22.7158 15.194 22.5054C20.7458 19.2819 23.8035 15.4226 23.8035 11.6386C23.8035 8.52199 21.8374 6.17163 19.2299 6.17163C18.3182 6.17472 17.4198 6.39901 16.6069 6.82653C15.794 7.25405 15.089 7.8729 14.5487 8.63346C14.4898 8.7283 14.4085 8.80595 14.3125 8.85901C14.2164 8.91208 14.1089 8.93879 14 8.9366C13.8921 8.93639 13.7859 8.90862 13.6908 8.85574C13.5957 8.80287 13.5147 8.72652 13.4549 8.63346C12.9142 7.87241 12.2087 7.25326 11.3951 6.82572C10.5815 6.39818 9.68248 6.17415 8.77016 6.17163Z" fill="#BBBBBB"/>
</svg>
