<svg width="48" height="48" viewBox="0 0 48 48" fill="none" xmlns="http://www.w3.org/2000/svg">
<g clip-path="url(#clip0_199_153)">
<path d="M10.6378 29.007L8.967 35.2444L2.86022 35.3736C1.03519 31.9886 0 28.1156 0 24C0 20.0202 0.967875 16.2672 2.6835 12.9626H2.68481L8.12156 13.9594L10.5032 19.3635C10.0047 20.8167 9.73303 22.3767 9.73303 24C9.73322 25.7618 10.0523 27.4497 10.6378 29.007Z" fill="#FBBB00"/>
<path d="M47.5806 19.5166C47.8562 20.9684 48 22.4678 48 24.0001C48 25.7184 47.8193 27.3944 47.4752 29.0111C46.3068 34.5127 43.2541 39.3166 39.0251 42.7162L39.0238 42.7149L32.1759 42.3654L31.2067 36.3153C34.0128 34.6696 36.2058 32.0942 37.361 29.0111H24.5276V19.5166H47.5806Z" fill="#518EF8"/>
<path d="M39.0236 42.7147L39.0249 42.716C34.912 46.022 29.6873 48 23.9999 48C14.8601 48 6.91376 42.8915 2.86011 35.3736L10.6377 29.0071C12.6645 34.4163 17.8825 38.2669 23.9999 38.2669C26.6293 38.2669 29.0927 37.556 31.2065 36.3152L39.0236 42.7147Z" fill="#28B446"/>
<path d="M39.3192 5.52525L31.5443 11.8905C29.3566 10.5231 26.7706 9.73312 24.0001 9.73312C17.7443 9.73312 12.4286 13.7603 10.5034 19.3635L2.68491 12.9626H2.68359C6.67791 5.26153 14.7245 0 24.0001 0C29.8234 0 35.1627 2.07431 39.3192 5.52525Z" fill="#F14336"/>
</g>
<defs>
<clipPath id="clip0_199_153">
<rect width="48" height="48" fill="white"/>
</clipPath>
</defs>
</svg>
