<svg width="48" height="48" viewBox="0 0 48 48" fill="none" xmlns="http://www.w3.org/2000/svg">
<g clip-path="url(#clip0_199_158)">
<path d="M37.763 0H10.237C4.58326 0 0 4.58326 0 10.237V37.763C0 43.4167 4.58326 48 10.237 48H37.763C43.4167 48 48 43.4167 48 37.763V10.237C48 4.58326 43.4167 0 37.763 0Z" fill="#0A93E2"/>
<path fill-rule="evenodd" clip-rule="evenodd" d="M38.5997 16.7195C37.5473 17.1854 36.4311 17.4912 35.2881 17.6265C36.4834 16.9094 37.3974 15.7774 37.8193 14.4345C36.6886 15.1046 35.4523 15.5777 34.1632 15.8336C33.3733 14.9856 32.3461 14.3954 31.2157 14.1399C30.0853 13.8844 28.9041 13.9755 27.8262 14.4013C26.7484 14.8272 25.8239 15.568 25.1733 16.5271C24.5228 17.4862 24.1764 18.6191 24.1793 19.778C24.1779 20.2205 24.2275 20.6616 24.327 21.0928C22.0336 20.9778 19.79 20.3819 17.7418 19.3439C15.6936 18.3058 13.8865 16.8488 12.4377 15.0673C11.6966 16.3372 11.4687 17.8424 11.8007 19.2748C12.1326 20.7072 12.9994 21.9587 14.2235 22.7732C13.3063 22.7444 12.4094 22.4961 11.6081 22.049V22.1193C11.6081 24.9176 13.5978 27.2518 16.2344 27.7792C15.3862 28.0106 14.4962 28.0443 13.633 27.8776C14.0017 29.0232 14.7188 30.0251 15.6843 30.7435C16.6497 31.462 17.8154 31.8611 19.0186 31.8852C17.8219 32.8259 16.4514 33.5212 14.9855 33.9314C13.5196 34.3416 11.9872 34.4586 10.4761 34.2757C13.0283 35.9139 16.0586 36.8631 19.321 36.8631C29.9376 36.8631 35.7381 28.0745 35.7381 20.4459C35.7381 20.1998 35.7381 19.9538 35.7241 19.7006C36.849 18.8921 37.8333 17.8726 38.6067 16.7195H38.5997Z" fill="white"/>
</g>
<defs>
<clipPath id="clip0_199_158">
<rect width="48" height="48" fill="white"/>
</clipPath>
</defs>
</svg>
